<svg width="24" height="24" viewBox="0 0 24 24" fill="none" xmlns="http://www.w3.org/2000/svg">
<path d="M12 0C5.383 0 0 5.383 0 12C0 18.617 5.383 24 12 24C18.617 24 24 18.617 24 12C24 5.383 18.617 0 12 0ZM18.082 9.457L11.582 15.957C11.387 16.152 11.131 16.25 10.875 16.25C10.619 16.25 10.363 16.152 10.168 15.957L6.918 12.707C6.527 12.316 6.527 11.684 6.918 11.293C7.309 10.902 7.941 10.902 8.332 11.293L10.875 13.836L16.668 8.043C17.059 7.652 17.691 7.652 18.082 8.043C18.473 8.434 18.473 9.066 18.082 9.457V9.457Z" fill="#37BD6B"/>
</svg>
